Coordinates
version=1
nRows=23
nColumns=10
inDegrees=yes

Units are S.I. units (second, meters, Newtons, ...)
If the header above contains a line with 'inDegrees', this indicates whether rotational values are in degrees (yes) or radians (no).

endheader
time	boatJoint_coord_0	boatJoint_coord_1	boatJoint_coord_2	boatJoint_coord_3	boatJoint_coord_4	boatJoint_coord_5	baseangle	kneeangle	bladeangle
     13.50000000	      0.00000000	      0.00000000	      0.00000000	      0.00000000	      0.00000000	      0.00000000	    -34.78610450	     -3.10709125	     37.89300185
     13.52000000	      0.00000000	      0.00000000	      0.00000000	      0.00000000	      0.00000000	      0.00000000	    -35.31664137	     -2.31960131	     37.63603079
     13.54000000	      0.00000000	      0.00000000	      0.00000000	      0.00000000	      0.00000000	      0.00000000	    -35.84874851	     -1.52731414	     37.37605644
     13.56000000	      0.00000000	      0.00000000	      0.00000000	      0.00000000	      0.00000000	      0.00000000	    -36.38250252	     -0.73009430	     37.11258993
     13.58000000	      0.00000000	      0.00000000	      0.00000000	      0.00000000	      0.00000000	      0.00000000	    -36.91803342	      0.07221300	     36.84581280
     13.60000000	      0.00000000	      0.00000000	      0.00000000	      0.00000000	      0.00000000	      0.00000000	    -37.45545750	      0.87976389	     36.57568523
     13.62000000	      0.00000000	      0.00000000	      0.00000000	      0.00000000	      0.00000000	      0.00000000	    -37.99489404	      1.69272071	     36.30216419
     13.64000000	      0.00000000	      0.00000000	      0.00000000	      0.00000000	      0.00000000	      0.00000000	    -38.53646562	      2.51125240	     36.02520328
     13.66000000	      0.00000000	      0.00000000	      0.00000000	      0.00000000	      0.00000000	      0.00000000	    -39.08029834	      3.33553498	     35.74475263
     13.68000000	      0.00000000	      0.00000000	      0.00000000	      0.00000000	      0.00000000	      0.00000000	    -39.62652216	      4.16575199	     35.46075867
     13.70000000	      0.00000000	      0.00000000	      0.00000000	      0.00000000	      0.00000000	      0.00000000	    -40.17762189	      5.00568251	     35.17192707
     13.72000000	      0.00000000	      0.00000000	      0.00000000	      0.00000000	      0.00000000	      0.00000000	    -40.72904646	      5.84837907	     34.88065451
     13.74000000	      0.00000000	      0.00000000	      0.00000000	      0.00000000	      0.00000000	      0.00000000	    -41.28327900	      6.69761192	     34.58565368
     13.76000000	      0.00000000	      0.00000000	      0.00000000	      0.00000000	      0.00000000	      0.00000000	    -41.84046831	      7.55360017	     34.28685439
     13.78000000	      0.00000000	      0.00000000	      0.00000000	      0.00000000	      0.00000000	      0.00000000	    -42.40076891	      8.41657345	     33.98418160
     13.80000000	      0.00000000	      0.00000000	      0.00000000	      0.00000000	      0.00000000	      0.00000000	    -42.96434149	      9.28677265	     33.67755519
     13.82000000	      0.00000000	      0.00000000	      0.00000000	      0.00000000	      0.00000000	      0.00000000	    -43.53135345	     10.16445076	     33.36688964
     13.84000000	      0.00000000	      0.00000000	      0.00000000	      0.00000000	      0.00000000	      0.00000000	    -44.10197943	     11.04987377	     33.05209368
     13.86000000	      0.00000000	      0.00000000	      0.00000000	      0.00000000	      0.00000000	      0.00000000	    -44.67640193	     11.94332170	     32.73306984
     13.88000000	      0.00000000	      0.00000000	      0.00000000	      0.00000000	      0.00000000	      0.00000000	    -45.25481197	     12.84508968	     32.40971408
     13.90000000	      0.00000000	      0.00000000	      0.00000000	      0.00000000	      0.00000000	      0.00000000	    -45.83740986	     13.75548917	     32.08191516
     13.92000000	      0.00000000	      0.00000000	      0.00000000	      0.00000000	      0.00000000	      0.00000000	    -46.03363372	     14.99669036	     31.03694387
     13.94000000	      0.00000000	      0.00000000	      0.00000000	      0.00000000	      0.00000000	      0.00000000	    -45.65889496	     15.33734916	     30.32147694
